<svg xmlns="http://www.w3.org/2000/svg" width="13.735" height="13.732" viewBox="0 0 13.735 13.732"><defs><style>.a{fill:#939393;}</style></defs><path class="a" d="M12.841.916a3.024,3.024,0,0,0-4.286,0L.7,8.772A.393.393,0,0,0,.586,9L0,13.308a.392.392,0,0,0,.111.331.4.4,0,0,0,.277.117.317.317,0,0,0,.052,0l2.6-.351a.4.4,0,1,0-.1-.785L.855,12.9l.406-3.007,3.165,3.165a.4.4,0,0,0,.277.117.388.388,0,0,0,.277-.117L12.84,5.2a3.024,3.024,0,0,0,0-4.286Zm-4.134.966L10.026,3.2l-7.17,7.167-1.32-1.32Zm-4,10.339L3.418,10.93l7.166-7.17L11.874,5.05Zm7.72-7.738L9.272,1.329a2.242,2.242,0,0,1,3.157,3.157Z" transform="translate(0.004 -0.026)"/></svg>